:SAMPLES-PER-SECOND 30
:FULLY-SPECIFIED
:DEGREES
387
root  -15.1582 34.7689 -7.27474 -171.893 0.24826 179.365
RightUpLeg  -10.1151 -9.80586 1.61414
RightLeg  7.12297 2.14779 0.130211
RightFoot  4.01569 0.00390588 0.26905
RightToes  -26.1421 -0.117534 -0.224279
Spine  -2.00757 0.217626 -0.241323
Spine1  -4.08003 0.501514 0.169071
HEad  -66.5989 -0.54872 5.83762
LeftShoulder1  -1.94126e-019 -3.10601e-018 -2.51263e-017
LeftArm  -10.5374 25.0181 -81.4245
LeftForeArm  30.7216 -17.2726 -2.88279
LeftHand  -0.506895 -2.54812 7.62977
RightShoulder  -4.96962e-017 0 -2.36833e-017
RightArm  -20.7247 -24.3144 79.2048
RightForeArm  53.9874 14.8002 1.18807
RightHand  -0.511207 -0.584804 -12.1177
LeftUpLeg  -9.47996 -5.49628 -0.969599
LeftLeg  6.88598 12.8533 0.71254
LeftFoot  4.41348 -0.0412265 1.15709
LeftToes  -17.8133 1.31424e-006 1.14295e-007
388
root  -15.1767 34.7695 -7.25679 -171.841 0.257462 179.371
RightUpLeg  -10.1867 -9.83496 1.59715
RightLeg  7.1189 2.12363 0.128608
RightFoot  3.87782 0.00442002 0.261705
RightToes  -26.821 -0.122654 -0.229275
Spine  -2.03358 0.246739 -0.221122
Spine1  -4.13252 0.564423 0.207324
HEad  -66.3621 -0.547288 5.89703
LeftShoulder1  -1.94126e-019 -3.10601e-018 -2.51263e-017
LeftArm  -10.2415 25.027 -81.4457
LeftForeArm  30.646 -17.5696 -2.92697
LeftHand  -0.500256 -2.49969 7.57558
RightShoulder  -4.96962e-017 0 -2.36833e-017
RightArm  -20.7131 -24.1938 79.2367
RightForeArm  53.9384 14.8391 1.18468
RightHand  -0.509535 -0.612465 -12.1369
LeftUpLeg  -9.64172 -5.69544 -0.977426
LeftLeg  7.06914 13.0594 0.76528
LeftFoot  4.21651 -0.0394034 1.12875
LeftToes  -17.8867 1.31424e-006 1.14295e-007
389
root  -15.1955 34.7705 -7.24772 -171.857 0.253326 179.375
RightUpLeg  -10.1612 -9.80733 1.56188
RightLeg  7.09883 2.04203 0.12299
RightFoot  3.7722 0.00487458 0.25521
RightToes  -27.4393 -0.126691 -0.23378
Spine  -2.05049 0.284262 -0.191472
Spine1  -4.16655 0.643349 0.264698
HEad  -66.1232 -0.581357 5.90732
LeftShoulder1  -1.94126e-019 -3.10601e-018 -2.51263e-017
LeftArm  -10.1421 24.9792 -81.5801
LeftForeArm  30.7783 -17.6293 -2.93804
LeftHand  -0.498914 -2.51941 7.64492
RightShoulder  -4.96962e-017 0 -2.36833e-017
RightArm  -20.7001 -24.1642 79.2502
RightForeArm  53.8361 14.9773 1.17167
RightHand  -0.508479 -0.59379 -12.1394
LeftUpLeg  -9.72326 -5.76751 -1.00344
LeftLeg  7.25195 13.1239 0.810623
LeftFoot  4.04036 -0.0371229 1.0933
LeftToes  -17.8053 1.31424e-006 1.14295e-007
390
root  -15.2099 34.7715 -7.2461 -171.889 0.353729 179.387
RightUpLeg  -10.1444 -9.76709 1.53476
RightLeg  7.12388 2.04827 0.124261
RightFoot  3.63716 0.00484193 0.255676
RightToes  -27.8959 -0.129704 -0.23708
Spine  -2.05811 0.352921 -0.137975
Spine1  -4.18101 0.78438 0.369519
HEad  -65.9153 -0.393638 5.61649
LeftShoulder1  -1.94126e-019 -3.10601e-018 -2.51263e-017
LeftArm  -10.1272 24.9366 -81.8333
LeftForeArm  30.7761 -17.7213 -2.95412
LeftHand  -0.501167 -2.46091 7.63175
RightShoulder  -4.96962e-017 0 -2.36833e-017
RightArm  -20.5594 -24.1815 79.1806
RightForeArm  53.5202 15.2021 1.15589
RightHand  -0.511369 -0.53741 -12.0326
LeftUpLeg  -9.74612 -5.76062 -1.02491
LeftLeg  7.39614 13.2066 0.848695
LeftFoot  3.86961 -0.0349801 1.06
LeftToes  -17.7065 1.31424e-006 1.14295e-007
391
root  -15.2267 34.7715 -7.24733 -171.948 0.52771 179.409
RightUpLeg  -10.1348 -9.78363 1.50169
RightLeg  7.21201 2.18875 0.136088
RightFoot  3.50428 0.00462749 0.25874
RightToes  -28.6665 -0.134695 -0.242385
Spine  -2.04932 0.428373 -0.0536389
Spine1  -4.16206 0.940197 0.534934
HEad  -65.9106 0.26171 5.27645
LeftShoulder1  -1.94126e-019 -3.10601e-018 -2.51263e-017
LeftArm  -10.1388 24.9707 -82.1671
LeftForeArm  30.7198 -17.885 -2.97904
LeftHand  -0.501998 -2.48372 7.61549
RightShoulder  -4.96962e-017 0 -2.36833e-017
RightArm  -20.4125 -24.132 79.0232
RightForeArm  53.2711 15.3793 1.14595
RightHand  -0.510028 -0.582802 -12.0289
LeftUpLeg  -9.71585 -5.77947 -1.0466
LeftLeg  7.51291 13.3986 0.887975
LeftFoot  3.69508 -0.0332212 1.03266
LeftToes  -17.5832 1.31424e-006 1.14295e-007
392
root  -15.2483 34.7693 -7.25047 -172.054 0.685883 179.417
RightUpLeg  -10.1301 -9.8399 1.44301
RightLeg  7.41383 2.34802 0.154214
RightFoot  3.32106 0.00469142 0.257827
RightToes  -29.268 -0.138913 -0.246846
Spine  -2.03101 0.454542 0.0444075
Spine1  -4.12539 0.999779 0.726433
HEad  -65.8174 1.25609 4.91635
LeftShoulder1  -1.94126e-019 -3.10601e-018 -2.51263e-017
LeftArm  -10.0756 25.1539 -82.5203
LeftForeArm  30.5701 -18.1872 -3.01365
LeftHand  -0.496103 -2.43503 7.572
RightShoulder  -4.96962e-017 0 -2.36833e-017
RightArm  -20.4198 -24.0043 78.84
RightForeArm  53.1832 15.4906 1.13929
RightHand  -0.507737 -0.640272 -12.0496
LeftUpLeg  -9.72439 -5.607 -1.10196
LeftLeg  7.79911 13.3865 0.953714
LeftFoot  3.45821 -0.0295818 0.976087
LeftToes  -17.4486 1.31424e-006 1.14295e-007
393
root  -15.2689 34.7651 -7.26113 -172.171 0.805771 179.398
RightUpLeg  -10.0869 -9.69616 1.35465
RightLeg  7.5913 2.28115 0.15695
RightFoot  3.11385 0.0054655 0.246767
RightToes  -29.6356 -0.140836 -0.248885
Spine  -2.02671 0.427945 0.129292
Spine1  -4.11778 0.953664 0.892863
HEad  -65.5953 2.40107 4.6672
LeftShoulder1  -1.94126e-019 -3.10601e-018 -2.51263e-017
LeftArm  -9.91409 25.4483 -82.7894
LeftForeArm  30.5953 -18.4928 -3.03243
LeftHand  -0.491613 -2.5109 7.43868
RightShoulder  -4.96962e-017 0 -2.36833e-017
RightArm  -20.4431 -23.9162 78.6465
RightForeArm  53.1324 15.6141 1.13177
RightHand  -0.507381 -0.553391 -12.0339
LeftUpLeg  -9.73315 -5.4883 -1.17432
LeftLeg  8.12452 13.3779 1.02875
LeftFoot  3.22952 -0.026088 0.921783
LeftToes  -17.4888 1.31424e-006 1.14295e-007
394
root  -15.2898 34.7609 -7.28243 -172.23 0.874786 179.38
RightUpLeg  -10.0595 -9.52476 1.27876
RightLeg  7.72516 2.17437 0.154757
RightFoot  3.00565 0.00611842 0.237438
RightToes  -29.7481 -0.142123 -0.250248
Spine  -2.02239 0.396498 0.197833
Spine1  -4.10959 0.895358 1.02639
HEad  -65.3987 3.39051 4.52604
LeftShoulder1  -1.94126e-019 -3.10601e-018 -2.51263e-017
LeftArm  -9.74088 25.6493 -82.996
LeftForeArm  30.6585 -18.6991 -3.04817
LeftHand  -0.487029 -2.64187 7.26024
RightShoulder  -4.96962e-017 0 -2.36833e-017
RightArm  -20.6378 -23.8661 78.4397
RightForeArm  53.0843 15.7269 1.12601
RightHand  -0.503562 -0.566915 -12.1048
LeftUpLeg  -9.74574 -5.47803 -1.23952
LeftLeg  8.36476 13.433 1.08903
LeftFoot  3.0426 -0.0234322 0.880503
LeftToes  -17.393 1.31424e-006 1.14295e-007
395
root  -15.3071 34.758 -7.30816 -172.252 0.919891 179.372
RightUpLeg  -10.0629 -9.5957 1.2279
RightLeg  7.85812 2.29755 0.168817
RightFoot  2.8766 0.00609851 0.237723
RightToes  -29.8982 -0.142847 -0.251012
Spine  -2.02976 0.376922 0.251303
Spine1  -4.12407 0.857871 1.12977
HEad  -65.2377 4.07102 4.55586
LeftShoulder1  -1.94126e-019 -3.10601e-018 -2.51263e-017
LeftArm  -9.68454 25.7406 -83.1606
LeftForeArm  30.7696 -18.7568 -3.05481
LeftHand  -0.487683 -2.62623 7.21347
RightShoulder  -4.96962e-017 0 -2.36833e-017
RightArm  -20.8541 -23.9138 78.1979
RightForeArm  52.9619 15.8124 1.12472
RightHand  -0.502291 -0.592453 -12.1063
LeftUpLeg  -9.7508 -5.51455 -1.28515
LeftLeg  8.52293 13.5064 1.13204
LeftFoot  2.88215 -0.0211872 0.845609
LeftToes  -17.257 1.31424e-006 1.14295e-007
396
root  -15.3222 34.7541 -7.34299 -172.252 0.976639 179.365
RightUpLeg  -10.0638 -9.65841 1.17875
RightLeg  7.96565 2.42314 0.182554
RightFoot  2.79669 0.00605884 0.23829
RightToes  -30.1455 -0.143079 -0.251255
Spine  -2.05863 0.356973 0.295417
Spine1  -4.18156 0.817991 1.2146
HEad  -64.9768 4.46992 4.66689
LeftShoulder1  -1.94126e-019 -3.10601e-018 -2.51263e-017
LeftArm  -9.79253 25.7917 -83.2943
LeftForeArm  30.8631 -18.5938 -3.0352
LeftHand  -0.490381 -2.65261 7.29052
RightShoulder  -4.96962e-017 0 -2.36833e-017
RightArm  -21.0107 -24.0079 77.9109
RightForeArm  52.91 15.7813 1.12772
RightHand  -0.500746 -0.649014 -12.1165
LeftUpLeg  -9.71052 -5.44077 -1.33046
LeftLeg  8.56969 13.4883 1.14152
LeftFoot  2.7739 -0.0193995 0.817824
LeftToes  -17.0922 1.31424e-006 1.14295e-007
397
root  -15.3321 34.7477 -7.38616 -172.242 1.02267 179.354
RightUpLeg  -10.0746 -9.73274 1.13771
RightLeg  8.0977 2.52779 0.196245
RightFoot  2.71798 0.00599751 0.239166
RightToes  -30.3887 -0.142891 -0.251052
Spine  -2.10236 0.319883 0.3264
Spine1  -4.26988 0.742789 1.27319
HEad  -64.6044 4.5797 4.83743
LeftShoulder1  -1.94126e-019 -3.10601e-018 -2.51263e-017
LeftArm  -10.0732 25.8574 -83.3688
LeftForeArm  30.9342 -18.2909 -2.98876
LeftHand  -0.492631 -2.63954 7.34313
RightShoulder  -4.96962e-017 0 -2.36833e-017
RightArm  -21.2108 -24.08 77.6277
RightForeArm  53.1856 15.5647 1.13382
RightHand  -0.500107 -0.651049 -12.1142
LeftUpLeg  -9.64954 -5.29954 -1.3702
LeftLeg  8.58512 13.3829 1.13635
LeftFoot  2.68113 -0.0175633 0.789284
LeftToes  -17.1147 1.31424e-006 1.14295e-007
398
root  -15.3352 34.7388 -7.43493 -172.235 1.0266 179.338
RightUpLeg  -10.0827 -9.75186 1.1061
RightLeg  8.2529 2.56688 0.206252
RightFoot  2.64087 0.00593554 0.240051
RightToes  -30.4882 -0.142353 -0.250481
Spine  -2.1513 0.27424 0.335821
Spine1  -4.36974 0.648804 1.28733
HEad  -64.1711 4.44404 5.0946
LeftShoulder1  -1.94126e-019 -3.10601e-018 -2.51263e-017
LeftArm  -10.3306 25.9302 -83.3638
LeftForeArm  30.9602 -18.017 -2.94565
LeftHand  -0.492706 -2.60794 7.37102
RightShoulder  -4.96962e-017 0 -2.36833e-017
RightArm  -21.7125 -24.1238 77.4036
RightForeArm  53.7054 15.1448 1.15735
RightHand  -0.492513 -0.707625 -12.305
LeftUpLeg  -9.6049 -5.29395 -1.39919
LeftLeg  8.64209 13.3798 1.14936
LeftFoot  2.59668 -0.0161715 0.767652
LeftToes  -17.1026 1.31424e-006 1.14295e-007
399
root  -15.3355 34.7296 -7.48671 -172.245 1.04553 179.33
RightUpLeg  -10.0804 -9.82888 1.08269
RightLeg  8.42745 2.66367 0.222146
RightFoot  2.5274 0.00589393 0.240646
RightToes  -30.3765 -0.141539 -0.249619
Spine  -2.18737 0.240802 0.333649
Spine1  -4.44369 0.577513 1.27817
HEad  -63.8094 4.10881 5.29421
LeftShoulder1  -1.94126e-019 -3.10601e-018 -2.51263e-017
LeftArm  -10.5603 25.9674 -83.3086
LeftForeArm  31.103 -17.7268 -2.90234
LeftHand  -0.492821 -2.60628 7.4095
RightShoulder  -4.96962e-017 0 -2.36833e-017
RightArm  -22.4709 -24.1861 77.2394
RightForeArm  54.1819 14.7151 1.19425
RightHand  -0.489881 -0.808094 -12.3627
LeftUpLeg  -9.56412 -5.29696 -1.41898
LeftLeg  8.761 13.3944 1.17832
LeftFoot  2.48767 -0.0144503 0.7409
LeftToes  -16.9649 1.31424e-006 1.14295e-007
400
root  -15.3318 34.7203 -7.53897 -172.237 1.09422 179.33
RightUpLeg  -10.0917 -9.87561 1.07727
RightLeg  8.5779 2.77161 0.238423
RightFoot  2.54786 0.00589369 0.240649
RightToes  -30.2182 -0.140518 -0.248541
Spine  -2.21874 0.213164 0.328635
Spine1  -4.50791 0.51694 1.26336
HEad  -63.6487 3.77531 5.41118
LeftShoulder1  -1.94126e-019 -3.10601e-018 -2.51263e-017
LeftArm  -10.7716 26.0236 -83.2301
LeftForeArm  31.1744 -17.5864 -2.88227
LeftHand  -0.492792 -2.59657 7.45238
RightShoulder  -4.96962e-017 0 -2.36833e-017
RightArm  -23.2838 -24.2306 77.1165
RightForeArm  54.8637 14.2223 1.24351
RightHand  -0.484122 -0.920467 -12.5139
LeftUpLeg  -9.52801 -5.30445 -1.42483
LeftLeg  8.85225 13.4565 1.20507
LeftFoot  2.46779 -0.0142303 0.737481
LeftToes  -16.8347 1.31424e-006 1.14295e-007
401
root  -15.3253 34.7107 -7.58811 -172.244 1.19553 179.34
RightUpLeg  -10.1294 -9.84574 1.08139
RightLeg  8.78962 2.90536 0.260677
RightFoot  2.5636 0.00595583 0.239761
RightToes  -29.739 -0.139363 -0.247326
Spine  -2.22637 0.209922 0.321357
Spine1  -4.52434 0.504841 1.24418
HEad  -63.6875 3.43758 5.44854
LeftShoulder1  -1.94126e-019 -3.10601e-018 -2.51263e-017
LeftArm  -10.9476 26.0524 -83.1264
LeftForeArm  31.2519 -17.5389 -2.8725
LeftHand  -0.494692 -2.63302 7.42767
RightShoulder  -4.96962e-017 0 -2.36833e-017
RightArm  -24.0788 -24.2528 77.0315
RightForeArm  55.585 13.7865 1.29034
RightHand  -0.48342 -0.960406 -12.5473
LeftUpLeg  -9.48794 -5.17833 -1.42143
LeftLeg  8.94614 13.4264 1.22438
LeftFoot  2.47586 -0.0140731 0.735038
LeftToes  -16.8102 1.31424e-006 1.14295e-007
